<svg xmlns="http://www.w3.org/2000/svg" viewBox="0 0 587 571">
<path d="M 559,0 L 558,1 L 550,1 L 549,2 L 539,2 L 538,3 L 534,3 L 533,4 L 529,4 L 528,5 L 522,5 L 521,6 L 518,6 L 517,7 L 511,7 L 510,8 L 508,8 L 507,9 L 505,9 L 504,10 L 500,10 L 499,11 L 497,11 L 496,12 L 494,12 L 493,13 L 490,13 L 489,14 L 487,14 L 486,15 L 483,15 L 482,16 L 481,16 L 480,17 L 479,17 L 478,18 L 474,18 L 472,20 L 471,20 L 470,21 L 467,21 L 465,23 L 462,23 L 460,25 L 459,25 L 458,26 L 456,26 L 455,27 L 454,27 L 453,28 L 451,28 L 449,30 L 448,30 L 447,31 L 446,31 L 445,32 L 444,32 L 442,34 L 440,34 L 438,36 L 436,36 L 433,39 L 432,39 L 431,40 L 430,40 L 428,42 L 427,42 L 425,44 L 424,44 L 423,45 L 422,45 L 422,46 L 421,47 L 419,47 L 419,48 L 418,49 L 417,49 L 415,51 L 414,51 L 412,53 L 411,53 L 411,54 L 410,55 L 409,55 L 407,57 L 406,57 L 406,58 L 405,59 L 404,59 L 397,66 L 396,66 L 390,72 L 390,73 L 389,74 L 388,74 L 388,75 L 382,81 L 382,82 L 381,83 L 380,83 L 380,84 L 377,87 L 377,88 L 374,91 L 374,92 L 372,94 L 372,95 L 369,98 L 369,99 L 367,101 L 367,102 L 364,105 L 364,106 L 363,107 L 363,108 L 362,109 L 362,110 L 360,112 L 360,113 L 359,114 L 359,116 L 356,119 L 356,121 L 354,123 L 354,124 L 353,125 L 353,127 L 352,128 L 352,129 L 351,130 L 351,132 L 349,134 L 349,135 L 348,136 L 348,138 L 347,139 L 347,140 L 346,141 L 346,144 L 345,145 L 345,146 L 344,147 L 344,148 L 343,149 L 343,152 L 342,153 L 342,154 L 341,155 L 341,157 L 340,158 L 340,161 L 339,162 L 339,164 L 338,165 L 338,169 L 337,170 L 337,172 L 336,173 L 336,175 L 335,176 L 335,182 L 334,183 L 334,185 L 333,186 L 333,193 L 332,194 L 332,197 L 331,198 L 331,202 L 330,203 L 330,214 L 329,215 L 329,223 L 328,224 L 328,225 L 327,226 L 325,224 L 325,223 L 324,222 L 324,221 L 322,219 L 322,217 L 320,215 L 320,214 L 319,213 L 319,212 L 317,210 L 317,209 L 316,208 L 316,207 L 314,205 L 314,204 L 313,203 L 313,202 L 311,200 L 311,199 L 309,197 L 309,196 L 306,193 L 306,191 L 305,191 L 304,190 L 304,189 L 303,188 L 303,187 L 301,185 L 301,184 L 300,183 L 299,183 L 298,182 L 298,181 L 295,178 L 295,177 L 293,175 L 293,174 L 292,173 L 291,173 L 290,172 L 290,171 L 288,169 L 288,168 L 287,167 L 286,167 L 285,166 L 285,165 L 269,149 L 268,149 L 267,148 L 267,147 L 266,146 L 265,146 L 264,145 L 264,144 L 262,144 L 261,143 L 261,142 L 260,141 L 259,141 L 256,138 L 255,138 L 250,133 L 249,133 L 248,132 L 247,132 L 245,130 L 244,130 L 243,129 L 243,128 L 241,128 L 239,126 L 238,126 L 237,125 L 236,125 L 234,123 L 233,123 L 232,122 L 231,122 L 229,120 L 228,120 L 227,119 L 226,119 L 225,118 L 223,118 L 221,116 L 220,116 L 219,115 L 218,115 L 217,114 L 216,114 L 215,113 L 214,113 L 213,112 L 211,112 L 210,111 L 209,111 L 208,110 L 206,110 L 205,109 L 204,109 L 203,108 L 202,108 L 201,107 L 198,107 L 197,106 L 195,106 L 194,105 L 193,105 L 192,104 L 189,104 L 188,103 L 186,103 L 185,102 L 181,102 L 180,101 L 178,101 L 177,100 L 174,100 L 173,99 L 167,99 L 166,98 L 163,98 L 162,97 L 152,97 L 151,96 L 145,96 L 144,95 L 133,95 L 132,94 L 115,94 L 114,95 L 102,95 L 101,96 L 94,96 L 93,97 L 83,97 L 82,98 L 78,98 L 77,99 L 71,99 L 70,100 L 67,100 L 66,101 L 63,101 L 62,102 L 57,102 L 56,103 L 54,103 L 53,104 L 48,104 L 47,105 L 45,105 L 44,106 L 43,106 L 42,107 L 38,107 L 37,108 L 36,108 L 35,109 L 34,109 L 33,110 L 29,110 L 28,111 L 27,111 L 26,112 L 23,112 L 22,113 L 21,113 L 20,114 L 18,114 L 17,115 L 15,115 L 14,116 L 13,116 L 12,117 L 11,117 L 10,118 L 8,118 L 7,119 L 6,119 L 5,120 L 3,120 L 2,121 L 1,121 L 0,122 L 0,125 L 1,126 L 1,127 L 2,128 L 2,130 L 3,130 L 4,131 L 4,132 L 5,133 L 5,134 L 7,136 L 7,137 L 8,138 L 8,139 L 10,141 L 10,142 L 13,145 L 13,146 L 14,147 L 14,148 L 15,149 L 15,150 L 19,154 L 19,155 L 21,157 L 21,158 L 23,160 L 23,161 L 24,162 L 25,162 L 26,163 L 26,164 L 29,167 L 29,168 L 31,170 L 31,171 L 32,172 L 33,172 L 34,173 L 34,174 L 36,176 L 36,177 L 37,177 L 40,180 L 40,181 L 63,204 L 64,204 L 65,205 L 65,206 L 66,206 L 71,211 L 72,211 L 75,214 L 76,214 L 79,217 L 80,217 L 81,218 L 81,219 L 83,219 L 84,220 L 84,221 L 85,221 L 87,223 L 88,223 L 89,224 L 90,224 L 91,225 L 91,226 L 92,226 L 93,227 L 94,227 L 96,229 L 97,229 L 99,231 L 100,231 L 101,232 L 102,232 L 103,233 L 104,233 L 105,234 L 105,235 L 107,235 L 108,236 L 109,236 L 111,238 L 112,238 L 113,239 L 114,239 L 115,240 L 117,240 L 119,242 L 120,242 L 121,243 L 123,243 L 124,244 L 125,244 L 126,245 L 127,245 L 128,246 L 130,246 L 132,248 L 135,248 L 136,249 L 137,249 L 138,250 L 139,250 L 140,251 L 143,251 L 144,252 L 145,252 L 146,253 L 149,253 L 150,254 L 152,254 L 153,255 L 154,255 L 155,256 L 160,256 L 161,257 L 163,257 L 164,258 L 167,258 L 168,259 L 174,259 L 175,260 L 179,260 L 180,261 L 191,261 L 192,262 L 207,262 L 208,263 L 209,263 L 210,262 L 227,262 L 228,261 L 240,261 L 241,260 L 245,260 L 246,259 L 253,259 L 254,258 L 256,258 L 257,257 L 260,257 L 261,256 L 266,256 L 267,255 L 269,255 L 270,254 L 272,254 L 273,253 L 277,253 L 278,252 L 279,252 L 280,251 L 283,251 L 284,250 L 285,250 L 286,249 L 288,249 L 289,248 L 292,248 L 293,247 L 294,247 L 296,245 L 300,245 L 302,243 L 305,243 L 307,241 L 308,241 L 309,240 L 311,240 L 312,239 L 314,239 L 315,238 L 316,238 L 317,237 L 318,237 L 320,235 L 323,235 L 324,234 L 325,235 L 325,236 L 322,239 L 322,241 L 319,244 L 319,245 L 318,246 L 318,247 L 317,248 L 317,249 L 315,251 L 315,252 L 314,253 L 314,255 L 312,257 L 312,258 L 311,259 L 311,260 L 309,262 L 309,264 L 308,265 L 308,266 L 306,268 L 306,271 L 304,273 L 304,275 L 303,276 L 303,277 L 302,278 L 302,279 L 301,280 L 301,282 L 300,283 L 300,284 L 299,285 L 299,286 L 298,287 L 298,289 L 297,290 L 297,291 L 296,292 L 296,295 L 295,296 L 295,297 L 294,298 L 294,300 L 293,301 L 293,304 L 292,305 L 292,307 L 291,308 L 291,311 L 290,312 L 290,314 L 289,315 L 289,317 L 288,318 L 288,324 L 287,325 L 287,327 L 286,328 L 286,331 L 285,332 L 285,340 L 284,341 L 284,346 L 283,347 L 283,391 L 284,392 L 284,397 L 285,398 L 285,405 L 286,406 L 286,409 L 287,410 L 287,413 L 288,414 L 288,419 L 289,420 L 289,422 L 290,423 L 290,424 L 291,425 L 291,429 L 292,430 L 292,432 L 293,433 L 293,436 L 294,437 L 294,438 L 295,439 L 295,440 L 296,441 L 296,444 L 297,445 L 297,446 L 298,447 L 298,449 L 299,450 L 299,451 L 301,453 L 301,456 L 302,457 L 302,458 L 304,460 L 304,462 L 306,464 L 306,466 L 307,467 L 307,468 L 309,470 L 309,472 L 312,475 L 312,477 L 313,478 L 313,479 L 314,480 L 314,481 L 317,484 L 317,485 L 318,486 L 318,487 L 319,488 L 319,489 L 322,492 L 322,493 L 325,496 L 325,497 L 326,498 L 326,499 L 328,501 L 328,502 L 329,502 L 330,503 L 330,504 L 333,507 L 333,508 L 335,510 L 335,511 L 338,514 L 338,515 L 339,515 L 340,516 L 340,517 L 346,523 L 346,524 L 354,532 L 354,533 L 357,536 L 358,536 L 359,537 L 359,538 L 363,542 L 364,542 L 365,543 L 365,544 L 366,544 L 374,552 L 375,552 L 380,557 L 381,557 L 382,558 L 382,559 L 383,559 L 386,562 L 387,562 L 390,565 L 391,565 L 394,568 L 395,568 L 397,570 L 400,570 L 400,569 L 402,567 L 402,566 L 403,565 L 403,564 L 405,562 L 405,561 L 406,560 L 406,559 L 408,557 L 408,555 L 409,554 L 409,553 L 411,551 L 411,549 L 413,547 L 413,545 L 414,544 L 414,543 L 415,542 L 415,541 L 416,540 L 416,538 L 418,536 L 418,534 L 419,533 L 419,532 L 420,531 L 420,529 L 421,528 L 421,526 L 422,525 L 422,524 L 423,523 L 423,522 L 424,521 L 424,519 L 425,518 L 425,516 L 426,515 L 426,512 L 427,511 L 427,510 L 428,509 L 428,508 L 429,507 L 429,503 L 430,502 L 430,501 L 431,500 L 431,498 L 432,497 L 432,493 L 433,492 L 433,491 L 434,490 L 434,485 L 435,484 L 435,482 L 436,481 L 436,479 L 437,478 L 437,472 L 438,471 L 438,468 L 439,467 L 439,463 L 440,462 L 440,453 L 441,452 L 441,447 L 442,446 L 442,401 L 441,400 L 441,395 L 440,394 L 440,385 L 439,384 L 439,381 L 438,380 L 438,377 L 437,376 L 437,372 L 436,371 L 436,368 L 435,367 L 435,366 L 434,365 L 434,361 L 433,360 L 433,359 L 432,358 L 432,354 L 431,353 L 431,352 L 430,351 L 430,350 L 429,349 L 429,346 L 428,345 L 428,344 L 426,342 L 426,339 L 424,337 L 424,335 L 423,334 L 423,332 L 421,330 L 421,328 L 419,326 L 419,324 L 416,321 L 416,319 L 413,316 L 413,314 L 411,312 L 411,311 L 410,310 L 410,309 L 407,306 L 407,305 L 405,303 L 405,302 L 403,300 L 403,299 L 400,296 L 400,295 L 398,293 L 398,292 L 395,289 L 395,288 L 394,288 L 391,285 L 391,284 L 385,278 L 385,277 L 371,263 L 370,263 L 363,256 L 362,256 L 361,255 L 361,254 L 360,254 L 356,250 L 355,250 L 352,247 L 351,247 L 347,243 L 346,243 L 344,241 L 343,241 L 340,238 L 339,238 L 336,235 L 335,235 L 333,233 L 334,232 L 367,232 L 368,231 L 377,231 L 378,230 L 389,230 L 390,229 L 394,229 L 395,228 L 398,228 L 399,227 L 405,227 L 406,226 L 409,226 L 410,225 L 412,225 L 413,224 L 418,224 L 419,223 L 421,223 L 422,222 L 426,222 L 427,221 L 428,221 L 429,220 L 430,220 L 431,219 L 434,219 L 435,218 L 437,218 L 438,217 L 441,217 L 443,215 L 445,215 L 446,214 L 448,214 L 449,213 L 450,213 L 452,211 L 455,211 L 457,209 L 459,209 L 461,207 L 462,207 L 463,206 L 465,206 L 467,204 L 468,204 L 469,203 L 470,203 L 472,201 L 473,201 L 474,200 L 475,200 L 477,198 L 478,198 L 480,196 L 481,196 L 483,194 L 484,194 L 485,193 L 486,193 L 490,189 L 491,189 L 493,187 L 494,187 L 498,183 L 499,183 L 500,182 L 500,181 L 501,180 L 502,180 L 507,175 L 508,175 L 518,165 L 518,164 L 523,159 L 523,158 L 525,156 L 526,156 L 526,155 L 530,151 L 530,150 L 532,148 L 532,147 L 534,145 L 534,144 L 535,143 L 536,143 L 536,142 L 538,140 L 538,139 L 539,138 L 539,137 L 542,134 L 542,133 L 544,131 L 544,130 L 546,128 L 546,127 L 547,126 L 547,125 L 548,124 L 548,123 L 550,121 L 550,120 L 551,119 L 551,118 L 552,117 L 552,116 L 554,114 L 554,113 L 555,112 L 555,110 L 557,108 L 557,106 L 559,104 L 559,103 L 560,102 L 560,100 L 561,99 L 561,98 L 562,97 L 562,96 L 563,95 L 563,93 L 565,91 L 565,88 L 566,87 L 566,86 L 567,85 L 567,84 L 568,83 L 568,81 L 569,80 L 569,79 L 570,78 L 570,76 L 571,75 L 571,72 L 572,71 L 572,70 L 573,69 L 573,66 L 574,65 L 574,63 L 575,62 L 575,60 L 576,59 L 576,56 L 577,55 L 577,53 L 578,52 L 578,48 L 579,47 L 579,45 L 580,44 L 580,42 L 581,41 L 581,35 L 582,34 L 582,32 L 583,31 L 583,28 L 584,27 L 584,19 L 585,18 L 585,15 L 586,14 L 586,0 Z" fill="#334456"/>
</svg>